<svg class="MapElements__svg___DqW7M" style="width:800px;height:640px;border:1px dashed #ddd" xmlns="http://www.w3.org/2000/svg" width="802" height="642" viewBox="0 0 802 642" font-family="&amp;quot;Helvetica Neue&amp;quot;,Helvetica,Arial,sans-serif"><defs><style>.Title__title-common___Nju1R{text-anchor:start;fill:#424242;font-weight:300}.Title__map-title___2Jdbr{font-size:25px}.Title__legend-title___RQzEz{text-anchor:end;font-size:12px}.Title__crreated-with___67o6X{font-size:11px;fill:#757575}</style></defs><g id="root-svg-group"><path class="datamap-subunit" d="M217.713 421.439l2.217 1.3h3.696l3.696.65h2.217l9.609-4.551 1.478-1.301.74-3.253.738-1.302h2.218l2.217 1.302 1.478.65.74.651.739 2.602.739 1.301h1.478l2.218.65.739.65h.739l3.695.65 1.479-2.6.739-.65h1.478l2.218 1.3v.65l-.74 3.901v1.3l-4.434 5.196-4.435 3.895-12.565 6.487-4.435 3.241-2.218.649h-12.565l-1.478-1.945v-3.242l-.74-1.946-1.478-1.297-11.826-3.894-2.956-.65h-2.218l-3.695.65-1.478.65h-1.479l-1.478 1.297V439.62l-4.435.649h-2.956l-2.218-1.297-.739-.649-2.956-2.595-.74-3.894v-7.145l-.739-6.502 15.522-4.554 1.478-1.302 1.479-.651 6.652 4.556 9.609 2.602zm48.783-25.401l-3.696-.653-4.435-1.958h-5.913l-2.217-1.305-8.13-7.185 5.912-2.614 2.218-.654h8.87l2.217 1.307 2.217 1.961 2.957 2.614v.653l.739 1.959v2.612zm2.956 11.734l.74 1.954-.74.652V416.236l1.479 1.3v1.952h-1.479l-.739-.65-.739-1.952v-3.253l-.74-1.302-.738-.651-.74 1.302-2.217.65h-8.87l-2.217-.65-2.217-1.302-5.174-4.559-1.478-.651-4.435-.652-.74.652-2.956 5.86-1.478 1.303-1.478 1.301H228.8l-.74.651-1.477.65-.74-.65-2.956-2.603-5.913-3.256-3.696-3.908H211.8l-4.435 1.954h-2.217l-5.174-1.302-1.478-1.304-1.479-1.955-1.478-2.608-1.478-1.956-2.957-2.61-1.478-1.957v-2.611l.74-1.306 10.347-5.88 25.87-3.268 2.217.654 1.478.654 1.479 1.307 1.478 1.96 1.478 2.614h-1.478l-1.478 1.306-.74.653v1.306l9.61.653 4.434 1.958 4.435 3.262.739 2.61 2.217 5.214 1.479 2.606 2.217.652 5.174-1.303 2.217 1.303 1.479-.652h2.956zm-6.652-30.681l-.739 3.27h-4.435l-.739-.654-.74-.654-.738-.654-.74-1.308v-1.963l1.479-1.309 2.217 1.31 2.218 1.308zm-17.739-9.82l.74.655.738.655.74 1.31 3.695.655 2.217 1.31v2.618l-.739 1.963-1.478.654-2.217 1.308-7.392 1.308h-1.478l-3.696-1.308-2.217-1.962-.74-1.963-.738-1.964-1.479-1.31-3.695-1.309-.74-.655-.738-1.31-.74-.655h-1.478l-2.217 3.275h-.74l-4.434.655-2.218-.655-.739-1.965v-5.242l3.696-1.966 8.13-1.312h2.218l.739.656h9.609l2.217.656 1.478 1.311z" fill="#d94801" stroke="#8d8d8d" stroke-width=".5"/><path class="datamap-subunit" d="M318.974 284.909l.74 1.988.738.662.74.663 2.217.662 4.435 4.635-.74.662v1.324l.74 1.985.739.661h-.74v.662l-2.217-.662-.739-.661h-.739l-2.956 2.645v.662l.739 1.322 1.478.661 1.478 5.947h4.435l-.74 1.321-3.695 1.32-2.956 5.28v.66l4.434-.66.74 1.98-1.479.66-.739.659h-.739v.66l.74 1.318 2.956 3.955 2.217 3.294.74-.659h2.217l1.478-.659 2.217-2.635 3.696-1.977 3.696.659h1.478l1.478-1.978.74-.66 2.217-.659.739-.659.739-.66 1.478.66 1.478.66.74 2.637 1.478.659 1.478 1.318h.74l-2.218 5.27v.658l-3.696 5.924v2.631l-.739.657-7.391 3.287h-2.957l.74.658v.657l-.74 1.314.74 1.314h-2.957l-4.435-.657h-2.956l-3.696 3.284-2.218.657-5.173.656-2.957 1.97-2.217 1.969-1.479 3.28-5.174 5.9h-2.956l-2.217.656-3.696 1.965-3.696.655h-3.695l-10.348-1.965-2.957 5.894-3.696 2.619-5.173 1.308h-3.696l-4.435 1.309-2.217-.654-2.218-1.309-2.217-1.309-1.478 1.31v.653-3.927l1.478-1.31 1.478-.654h2.957l-.74-1.31-2.217-1.965-6.652-1.966-1.478-1.966-.74-5.246-1.478-3.28-2.956-1.97-2.218-1.97-2.217 1.313-2.217.657h-2.957l-1.478.656-.74.657h-1.478l-.739-4.596 2.957-1.971 5.913-1.314.739-1.314h2.217l2.957.657 2.956 1.314h.74l1.478-.657.739-.657-.74-1.315-2.217-3.944-.739-.658-.739-.658V336.415l.74-.658.738-.658v-.658l-.739-2.633-1.478-5.928-1.478-2.636.739-1.319.74-1.319 4.434 1.32 3.696-.66 3.695-1.978 14.044-17.17 11.826-17.872 8.87-15.925 4.434 1.993h2.218l2.217-.665 2.217.665-4.434 6.637v2.654l-.74 1.99-1.478 1.988.74 1.326h.738l.74.662.739.663h2.956l4.435-1.325 2.217-.663 3.696-1.326h.74l.738 2.651v.663l.74.663z" fill="#d94801" stroke="#8d8d8d" stroke-width=".5"/><path class="datamap-subunit" d="M377.366 193.526l-.74 16.094-5.173-1.34-2.957 2.01-1.478 6.025-16.261 10.7 2.217 10.682 4.435 6.669 2.957 7.328h-3.696l-5.174 5.325v4.656l5.174 5.982 2.956.664h5.913l3.696.664 8.13 5.976-3.695.663H367.756l-.738.664-1.479 2.654-2.217 5.304v1.325l-.74 1.326-.738 1.987-.74 1.325-2.217 1.324h-5.174l-3.695.662-1.479.662-2.956.662v-3.31l-.74-2.65.74-3.313 1.478-1.989-.739-1.326v-.663h-.74v-.663h-.738v-1.327l-.74-.663.74-.664 2.956-1.327-3.695-.663-2.218.663v-.663h-.739l-.739-.664h-.74l-2.217 1.327-1.478.664h-1.478l-.74.663-.738 2.654h-4.435l-2.218 1.326-1.478 1.326-1.478 1.326-4.435 1.326-3.696 1.988-.739-.663v-.663l-.739-2.65h-.739l-3.696 1.325-2.217.663-4.435 1.325h-2.957l-.738-.663-.74-.662h-.739l-.739-1.326 1.478-1.989.74-1.99v-2.653l4.434-6.637-2.217-.665-2.217.665H296.8l-4.435-1.993.74-1.993 5.913-17.298.739-4.664v-1.333l2.217-4.001 4.435-31.422 1.478-8.044v-2.013l1.478-5.37 3.696-10.752.74-5.383.738-2.692v-4.041l.74-3.37 1.478-1.348 5.913 1.349.739-1.349.74 1.349-1.48 4.716 2.218 3.367 4.435.673h3.696l2.217-1.346 3.696-3.368 2.217-.673 3.696-.674 4.435-2.021 9.608-8.767v.674l.74 2.024 7.39 20.88zM330.8 141.639v.676h2.218l-.74 2.029-1.478 2.704-2.956 4.054-4.435 4.051-2.217 4.05-2.957 1.348-3.696-1.349-1.478-4.724v-4.052l2.217-4.73 2.218-4.057 5.174-4.06 2.217-4.738 2.218-4.065h2.956l.74 1.356v1.354l-.74.678 1.478 2.708.74 2.708v2.706z" fill="#feedde" stroke="#8d8d8d" stroke-width=".5"/><path class="datamap-subunit" d="M335.235 122.675l-2.956 2.035-2.957-1.356 4.435-5.428 6.652-5.43 5.913-4.077 5.174.68v.679h-2.217l-1.479.68-2.956 1.358-7.392 7.468zm133.783 21.669v2.028l.739.676 1.478.676 2.218 1.35.739.677v1.351l.739 2.026v1.35l5.174 7.422 1.478 2.697v.674l-.739.675-2.217 4.716-.74.674-4.434 2.693-3.696-2.02-2.217-.673h-2.218l-1.478.673-.74 1.347-2.956 3.365-8.13 6.727-4.435 1.345h-1.478l-2.218.672v1.344l-1.478 1.344h-4.435l-.739-1.344-1.478-1.344h-.74v-.672.672h-.738l-1.479.672h-.739v.672l-.739.672v.672l-.739.672h-.74l-2.216 2.015H423.192v-.672l-1.479-.672-3.695 2.015-.74-2.686-2.956-2.688-.739-.672-2.217.672-1.479-.672h-2.217l-2.217.672-2.218 1.344-2.956 2.687-4.435 2.686-18.478.672-10.348-12.095-7.392-20.88-.739-2.024v-.674l9.609-8.778 1.478-1.351 2.218-2.028 4.434-.676 1.479-1.352 2.217-4.058 2.957-10.834 1.478-5.422 3.696-4.07 2.217-2.036 3.696-1.358 1.478-2.037 1.478-2.037 2.218-2.038 1.478-.68 5.174-.68 2.956-2.718 15.522-6.121 3.696-2.722h2.217l6.652-3.405 9.609-.68 10.348-.682-.74 2.724-.738 1.362.739 4.083 1.478.68h2.217v.68h.74v.681l.739.68h2.217v-.68l2.217.68v5.439h.74v.68l-1.479 2.038-1.478 1.358v.68l-.74 2.036-1.477 2.715-1.479 2.036.74 1.357v2.713l-3.696 4.744-.74 2.033-.738 4.063v3.384l1.478.677.739 1.353 1.478.677h3.696l2.217.676 2.957 2.029zm-85.74-50.892l-4.434 1.362-3.696 1.362-13.304 5.444h-2.957l-1.478-2.041 1.478-2.722 5.174-2.043 1.478-1.362h2.218l13.304-2.724 1.478-1.363 1.479-1.363 14.782-2.727-2.217 3.408-2.957.682-5.913.681.74 1.363v.681l-1.479.681zm47.305-11.587l4.435 2.046-10.348 2.728h-9.609l-2.956.681-4.435 2.045-2.217-.682-2.218-2.726.74-2.046 1.478-1.364 1.478.682zm23.652.682l-2.217 2.728-.74-.682v-.682l.74-.682-.74-2.728 2.218-2.048 3.696-1.365 2.956-.682 9.609-.683 2.217.683v.682h-.739z" fill="#f16913" stroke="#8d8d8d" stroke-width=".5"/><path class="datamap-subunit" d="M543.67 185.465V184.12l-2.217-2.017-.74-.672-2.217-.673 2.218-6.056v-1.346h-.74l-5.173-6.063-4.435-6.067-3.696-4.048-2.956-3.375-2.218-2.026-2.217-2.026-4.435-4.731-3.696-4.057-1.478-.677h-2.217l-5.913 2.03h-.74v-.677l-1.478-2.706-2.956-4.06-1.478-.678v-.677h-.74l-1.478-2.71-1.478-2.71-1.478.678-1.479-1.355-3.695-1.355-2.957 3.388-2.217 1.355-1.479.677-1.478 2.032v2.031h-.739v.677l-1.478 2.707v1.353l-.74 1.353-1.478 2.705-.739.676-2.217-.676-.74-.676-2.956-2.029-2.217-.676h-3.696l-1.478-.677-.74-1.353-1.477-.677v-3.384l.739-4.063.739-2.033 3.695-4.744v-2.713l-.739-1.357 1.479-2.036 1.478-2.715.739-2.037v-.679l1.478-1.358 1.479-2.039v-.68h-.74v-5.438l-2.217-.68v.68h-2.218l-.739-.68v-.68h-.739v-.68h-2.217l-1.478-.68-.74-4.084.74-1.362.739-2.724h8.87l.739.681 1.478 1.362h2.218l2.217-2.043 14.782-4.088 22.913-4.09 9.609 2.045 2.217.682 1.479 2.044 3.695 13.617 2.957 1.36v1.36l.739.68.74.68 2.956.68 3.695 2.718 2.218-.68.739.68.739.68 1.478-.68.74-.68h.738v.68l-.739.68-.739.679.74.679v4.074l2.956 2.036 7.391 1.358h.74l.738 4.748v5.422l-.739 2.71-1.478 3.385-.74 1.354.74 2.03v1.353l.74.677v1.352l.738 11.488v6.074l-.739 5.394-2.217 5.391-8.13 12.114zM483.8 68.208l5.174 2.05h-.739v.684h-.739v.683l-3.695-.683-1.479-1.367v-1.367zM433.54 360.061v.656l-.74 1.967H437.235l.74.655 2.217 1.311.739 1.31-.74 4.586 2.218 2.619 6.652 3.272-1.478 3.27-.739 1.962.74 1.961 6.651 9.145 3.696 4.567.74 5.217.738 2.607-.739 3.258-.74 3.256v3.254l1.48 1.302-.74 1.951v3.252l-.74 1.95-.738 1.3-2.957 1.95-.739.649-5.174 9.738-2.217 1.946-.74 1.945-.738 3.241v3.24l.739 3.239 2.217 1.294 4.435-3.885 2.217 1.295h-.739l-2.217 1.943 2.217 1.942-1.478 1.942-5.913 3.235-8.87 7.111-1.478 1.292-1.478 3.876-1.479 1.291-1.478.646-1.478-1.292-.74-1.937-1.477-.646-2.957 1.938.74 3.228 1.477 4.516v3.87h1.479l2.217-1.29 1.478-.645h1.479l2.217 1.29 3.696-.645v.645l-.74 1.289v3.867l.74 1.288.739.644 2.217 1.288 2.957 1.288v.644l-.74.644v1.287l.74 3.218v1.286l-.74 1.287-.739 1.286h-2.217l-1.478.643-.74 1.928V506.11l-.738 1.928-1.479 1.284-1.478-.642.74 1.927.738 1.284.74.642.739 1.284v1.925l-2.218.642-6.652-.642h-1.478l-.74-.642h-8.87l-.738-.641-2.218-1.926-.739-.642-.739.642-1.478 1.926v.641h-2.218l-2.217-1.283 1.478-3.21v-1.927l-1.478-.642-2.217-.643-.74-.642-1.478-1.285-1.478-1.929v-3.857l6.652-7.722 1.478-.644h.74l.739-.644 1.478-1.932 1.478-3.221.74-1.933-.74-.645h-.739l-2.217.645 3.695-6.449 1.479-3.872-1.479-1.937.74-1.937v-1.292l.739-.646 1.478 1.292.74-1.292.738-1.292.74-1.938-.74-.647v-1.292h.74l1.478-.647h.739l.739-.647-2.218-2.586.74-1.941.739-1.294v-.647l-.74-1.942h-1.478l-2.956.647-1.478-1.295-2.218-2.59-1.478-.647-1.478-.648-3.696 1.295h-2.217l-.74-.647-.739-1.296-1.478-1.296-5.913-1.295-1.478-1.297 1.478-.648 2.957-.648h.739l.739-.648.739-.649v-1.297l1.478-5.19 1.478-3.245.74-.65 2.217-2.597 9.609-3.25 6.652-1.949 2.956-.65 2.218-1.95 3.695-3.253-2.217-5.206-3.696-4.559-2.217-9.126-1.478-9.791 3.695.653 3.696 1.306h.74l2.956-.653 4.435-1.306h1.478l2.217 1.959 1.478-1.96v-1.306l-.739-1.306-.739-4.576-.739-.654v-.654l-2.217-3.27-.74-.655-.739-.654-.739-.654.74-1.31-1.479-1.963-1.478-5.895-1.478-1.311h-3.696l-1.478-1.311-.74-1.967v-1.967l-2.217-.656v-1.968l1.478-.656h1.479l.739.656 1.478 1.968v.656z" fill="#feedde" stroke="#8d8d8d" stroke-width=".5"/><path class="datamap-subunit" d="M425.41 358.094l2.217.656v1.967l.739 1.967 1.478 1.31h3.696l1.478 1.312 1.478 5.895 1.478 1.964-.739 1.309.74.654.739.654.739.655 2.217 3.27v.654l.74.654.738 4.576.74 1.306v1.307l-1.479 1.959-2.217-1.96h-1.478l-4.435 1.307-2.957.653h-.739l-3.696-1.306-3.695-.653 1.478 9.79 2.217 9.127 3.696 4.559 2.217 5.206-3.695 3.252-2.218 1.951-2.956.65-6.652 1.95-9.609 3.249-2.217 2.597-.74.65-1.478 3.245-1.478 5.19v1.297l-.74.649-.738.648h-.74l-2.956.648-1.478.648-.74-.648v-3.89l-.739-2.595-1.478-2.596-2.217-1.298-2.218-.65-2.217 1.3-4.435 2.595-1.478 1.298-11.826-.649-2.957.649h-2.217v-5.841l-2.217-1.948-1.479-.65-3.695.65-1.479-1.3-.739-.65-.739-3.898-.74-1.3-3.695-3.251-.739-1.952.74-3.253.738-2.604.74-2.605-2.218-3.258-2.956-1.955v-.652l-1.479.652-.739.652v1.303l-.739 1.955-1.478 2.605-2.218 3.256-2.956 2.603h-2.217l-3.696-1.301-1.478-.651h-6.653l-2.217-1.302.74-1.953h.738l4.435 1.953-.74-2.605v-2.605l.74-1.955v-2.607l-.74-1.303-2.216-.653-1.479-.652-1.478-.652-2.957 1.957-7.39 9.122-1.48.65-1.477.652h-1.479l-2.956-.651-2.957.65h-.739l-2.217-1.301v-1.954l.739-1.954.74-2.607-.74-1.304h-1.478l-2.957.652-5.174 1.955-5.174 2.606 1.479 1.303-.74 1.303-.739 1.302v1.302l.74 1.302 2.217 2.602.739 1.952-.74 2.6-1.477.651h-4.435l-2.218-.65-3.695-1.95h-.74v-1.952l-1.478-1.301v-5.858l.74-.652-.74-1.954 2.218-.651.739-3.258-.74-3.912-2.217-2.609-2.217-1.304h-.74l.74-3.263v-2.612l-.74-1.96v-.652l-2.956-2.614v-3.268l-1.478-1.308.74-3.27 4.434-1.309h3.696l5.173-1.308 3.696-2.619 2.957-5.894 10.348 1.965h3.695l3.696-.655 3.696-1.965 2.217-.656h2.956l5.174-5.9 1.479-3.28 2.217-1.97 2.957-1.969 5.173-.656 2.218-.657 3.696-3.284h2.956l4.435.657h2.956V349.561l1.479 1.97 3.695 2.626H351.496l2.956 2.625v2.624l-.739 1.967.74.655 17.739-1.967 2.217-1.311 1.478-1.312 1.479-1.968.739-2.626.739-3.283 1.478-.656h4.435l1.478-.657 2.218-1.314 2.217-.657 1.478 1.314h1.478l5.914-.657 4.434.657.74 1.314 1.478 2.626.739.657 2.217.656 6.652 4.594z" fill="#d94801" stroke="#8d8d8d" stroke-width=".5"/><path class="datamap-subunit" d="M514.844 302.78h-.739l-1.478.661-2.218 1.983v.66l-.739 1.983-.739 1.32-1.478.661h-.74l-1.478.66V314.67l1.479.66 2.217.66 5.913 3.958 2.957 2.637.739.66v3.295h-1.479l-.739 1.317-2.217 3.952-2.217 2.633-2.957 1.316-8.13.658-10.348 3.289-4.435 3.287-1.478 1.315h-2.218l-5.913-1.972.74 3.286-.74 1.971-3.695.657v-2.628l-1.479-.657-3.695-.657-.74-.658-1.478-1.972v-.657h-1.478l-2.957.657-2.956-1.315-2.957-2.63-3.695-1.316-2.957 1.973.74.658 3.695 3.945 1.478 1.972h-1.478l-2.217-.657-2.957-1.315-4.435 1.315-1.478.657-1.478 1.314-2.218 1.314-3.695.657-2.218.657v1.97l2.218 1.313 1.478 3.282v3.28l-2.217 1.311-2.957-1.311v-.656l-1.478-1.968-.74-.656h-1.478l-1.478.656v1.968l-9.609-.656-6.652-4.594-2.217-.656-.74-.657-1.478-2.626-.739-1.314-4.434-.657-5.914.657h-1.478l-1.478-1.314-2.217.657-2.218 1.314-1.478.657h-4.435l-1.478.656-.74 3.283-.738 2.626-1.479 1.968-1.478 1.312-2.217 1.311-17.74 1.967-.739-.655.74-1.967v-2.624l-2.957-2.625H347.8l-3.695-2.626-1.479-1.97V347.591l-.739-1.314.74-1.314v-.657l-.74-.658h2.957l7.391-3.287.74-.657V337.073l3.695-5.924v-.658l2.217-5.27H363.322l1.478-1.318 1.479-.66 5.174 3.296 2.217-.66 2.956-1.976 2.218-.66 2.217.66h2.218l2.217-1.319.74-.659 4.434.66 7.391 4.612 3.696 1.318v-5.272l-.74-.659-.738-1.318-1.479-1.978-1.478-2.64-.739-4.62v-5.282l-1.478-3.305h-1.479l.74 1.322v1.322l-.74.66v.661h-1.478v.66l-.739.661h-1.478l-2.218-1.321h-.739v-.66l.74-.661.739-.661.739-1.983.739-1.322h1.478v-.661l-.74-.661v-.662l.74-1.322v-.662l-.74-1.323h-.738l-.74-.662-.738-1.323-.74-.662h-2.217l-2.217-1.324-.74-.662v-.662h.74l.739-.662v-1.987l-2.957-2.65-.739-1.325v-1.326l.74-3.315v-2.653l2.217.663 6.652-1.327 3.695-1.327 1.479-3.318 1.478-3.32 1.478-3.987 2.218-1.994 2.217-1.995 2.957-1.995 2.956-1.33 4.435-1.997 3.696-1.997 2.956-1.997 1.478-1.998 2.218-3.33 1.478-3.333 1.478-4.001V236.363l1.479.667h.739l1.478 2.002 2.217 4 1.479.667 2.956-1.333 2.957-2.667 2.956-1.334.74.667h.738l.74 1.334.739 1.333 1.478 2 .74.667.738.667.74 2.665.738 1.998 2.218 3.33.739.665-.74 1.997-1.477 3.992-2.957.665v.665h-.739l.74 1.33v.665l-.74 1.33-.74 3.322v1.328l.74 1.993.74.664 2.216.664 1.479 4.645v2.654l1.478.663h.74v.663l-.74 1.326v.663l.74.663.738.663h.74l.739-1.326.739-.663h1.478l6.652 1.326h5.913l.74-.663 1.478-.663 3.695-1.326h2.957l.739 1.326 4.435 6.627 2.956 2.649h2.218l3.695.662 2.957-.662h1.479V293.519h.738l3.696-.662.739.662h1.478v3.971l-.739 1.984 9.609 2.645.739.661z" fill="#8c2d04" stroke="#8d8d8d" stroke-width=".5"/><path class="datamap-subunit" d="M377.366 274.96l3.695 2.655v2.653l-.739 3.315v1.326l.74 1.325 2.956 2.65v1.987l-.74.662h-.739v.662l.74.662 2.217 1.324h2.217l.74.662.739 1.323.739.662h.739l.74 1.323v.662l-.74 1.322v.662l.74.66v.662h-1.48l-.738 1.322-.74 1.983-.739.66-.739.661v.661h.74l2.217 1.321h1.478l.74-.66v-.661h1.478v-.66l.739-.661v-1.322l-.74-1.322h1.479l1.478 3.304V312.03l.74 4.62 1.477 2.639 1.479 1.978.739 1.318.739.66V328.515l-3.696-1.318-7.391-4.613-4.435-.659-.739.66-2.217 1.318h-2.218l-2.217-.66-2.218.66-2.956 1.977-2.217.659-5.174-3.295-1.479.659-1.478 1.318h-5.174l-1.478-1.318-1.478-.66-.74-2.637-1.478-.659-1.478-.66-.74.66-.738.66-2.218.659-.739.66-1.478 1.977h-1.478l-3.696-.66-3.696 1.978-2.217 2.635-1.478.659H330.8l-.739.659-2.217-3.294-2.957-3.955-.739-1.319v-.659h.74l.738-.66 1.479-.66-.74-1.978-4.434.66v-.66l2.956-5.28 3.696-1.32.739-1.322h-4.435l-1.478-5.947-1.478-.661-.74-1.322v-.662l2.957-2.645h.74l.738.661 2.218.662v-.662h.739l-.74-.661-.738-1.985v-1.324l.739-.662-4.435-4.635-2.217-.662-.74-.663-.739-.662-.739-1.988 4.435-1.326 1.478-1.326 1.478-1.326 2.218-1.326h4.435l.739-2.654.739-.663h1.478l1.478-.664 2.218-1.327h.739l.74.664h.738v.663l2.218-.663 3.695.663-2.956 1.327-.74.664.74.663v1.327h.739v.663h.739v.663l.74 1.326-1.48 1.989-.738 3.313.739 2.65v3.31l2.956-.662 1.479-.662 3.695-.662h5.174l2.218-1.324.739-1.325.739-1.987.74-1.326v-1.325l2.216-5.304 1.479-2.654.739-.664h5.913z" fill="#fd8d3c" stroke="#8d8d8d" stroke-width=".5"/><path class="datamap-subunit" d="M418.018 191.511l7.391 3.357 4.435 4.027.74 1.341.738 1.342 1.478 4.022.74 4.02v1.34l-.74.67-.739.67v.669h.74l4.434 1.339 1.479 1.338 2.217 2.677-2.957 1.338-4.434 2.006h-1.479l-1.478-.669h-1.478l-5.174 2.006v.669l-1.478.668v2.005l1.478 1.337 2.217 8.68V239.032l-1.478 4-1.478 3.333-2.218 3.331-1.478 1.998-2.956 1.997-3.696 1.997-4.435 1.996-2.956 1.33-2.957 1.996-2.217 1.995-2.218 1.994-1.478 3.986-1.478 3.32-1.479 3.32-3.695 1.326-6.652 1.327-2.218-.663-3.695-2.654-8.13-5.976-3.697-.664h-5.913l-2.956-.664-5.174-5.982v-4.656l5.174-5.325h3.696l-2.957-7.328-4.435-6.669-2.217-10.682 16.26-10.7 1.479-6.025 2.957-2.01 5.173 1.34.74-16.094 18.478-.672 4.435-2.686 2.956-2.687 2.218-1.344 2.217-.672h2.217l1.479.672 2.217-.672.74.672 2.956 2.688z" fill="#feedde" stroke="#8d8d8d" stroke-width=".5"/><path class="datamap-subunit" d="M509.67 219.66l-2.217 1.338.739 2.006v4.011l.739.668 2.957 2.672-5.174 2.67-2.218.668 1.479 2.003v3.336l.739 2.667v2.667l2.217 2 2.957 1.332 7.39 1.332 5.175 1.332 2.956.666h2.218l2.217-.666 1.478-1.332v-.666l.74-.666 5.913 9.986 1.478 3.991-.74 5.982-2.217 4.649-.739 1.991v3.318l.74 3.316.738 1.326h.74l-.74 1.326-4.434 2.651-.74.663-2.217 3.974-2.217 1.986-3.696 1.324-2.217 1.985-2.218 4.63-1.478 1.323-5.174.661h-.739l-.74-.661-9.608-2.645.74-1.984v-3.971h-1.479l-.74-.662-3.695.662h-.739V291.533h-1.478l-2.957.662-3.695-.662h-2.218l-2.956-2.649-4.435-6.627-.74-1.326h-2.956l-3.695 1.326-1.479.663-.739.663h-5.913l-6.652-1.326h-1.478l-.74.663-.739 1.326h-.739l-.739-.663-.739-.663v-.663l.74-1.326v-.663h-.74l-1.478-.663v-2.654l-1.479-4.645-2.217-.664-.739-.664-.74-1.993v-1.328l.74-3.323.74-1.33v-.664l-.74-1.33h.74v-.665l2.956-.665 1.478-3.992.739-1.997-.74-.665-2.217-3.33-.739-1.998-.739-2.665-.739-.667-.739-.667-1.478-2-.74-1.333-.739-1.334h-.739l-.739-.667-2.956 1.334-2.957 2.667-2.956 1.333-1.479-.666-2.217-4.001-1.478-2.002h-.74l-1.478-.667-2.217-8.68-1.478-1.337v-2.005l1.478-.668v-.669l5.174-2.006h1.479l1.477.669h1.479l4.434-2.006 2.957-1.338-2.217-2.677-1.479-1.338-4.435-1.34h-.739v-.669l.74-.67.739-.67v-1.339l-.74-4.02-1.478-4.022-.739-1.342-.74-1.341-4.434-4.027-7.391-3.357 3.695-2.015 1.479.672v.672h4.435l2.217-2.015h.74l.738-.672v-.672l.74-.672v-.672h.738l1.479-.672h.739v-.672.672h.739l1.478 1.344.74 1.344h4.434l1.478-1.344v-1.344l2.218-.672h1.478l4.435-1.345 4.435 5.377.739.671 1.478 1.344.74 1.343-.74 1.343-2.956 4.027-2.957.67-.74 2.013 2.957 8.714.74.67.739.67v.67h.739l.739.67h.74l.738-.67v-.67h.74l1.478.67 3.695 2.009H471.236l.738 1.339 1.479 1.338 1.478 2.008.74.669.738 2.675h1.478l2.218-.668h.739v-.67h.74l.738.67v.668h1.479l.739-.668h1.478l3.696 2.006v-5.352l1.478-1.338 4.435-2.677 2.956-.67h1.478l7.392 3.347v.67h.739v2.676z" fill="#f16913" stroke="#8d8d8d" stroke-width=".5"/><path class="datamap-subunit" d="M543.67 185.465l-.739 2.688-.739 5.373-.74 17.434-.738 5.355-2.218 3.346-3.695-.67-1.479-.668-4.434.669-5.174-1.338h-9.609l-2.957.669-1.478 1.338-1.478-.67v-2.676h-.74v-.669l-7.39-3.347h-1.479l-2.956.67-4.435 2.677-1.478 1.339V222.336l-3.696-2.006h-1.478l-.74.668h-1.478v-.668l-.739-.67h-.739v.67h-.74l-2.217.668h-1.478l-.739-2.675-.739-.67-1.478-2.007-1.479-1.338-.739-1.34H465.322l-3.695-2.008-1.479-.67h-.739v.67l-.739.67h-.74l-.738-.67h-.74v-.67l-.738-.67-.74-.67-2.956-8.714.739-2.012 2.957-.671 2.956-4.027.74-1.343-.74-1.343-1.478-1.344-.74-.671-4.434-5.377 8.13-6.727 2.957-3.365.739-1.347 1.478-.673h2.218l2.217.673 3.696 2.02 4.434-2.693.74-.674 2.217-4.716.74-.675v-.674l-1.48-2.697-5.173-7.422v-1.35l-.74-2.026v-1.351l-.738-.676-2.218-1.351-1.478-.676-.74-.676v-2.028l2.218.676.74-.676 1.478-2.705.739-1.353v-1.353l1.478-2.707v-.677h.74v-2.031l1.477-2.032 1.479-.677 2.217-1.355 2.957-3.388 3.695 1.355 1.479 1.355 1.478-.677 1.478 2.71 1.478 2.709h.74v.677l1.478.677 2.956 4.061 1.479 2.706v.676h.739l5.913-2.029h2.217l1.478.677 3.696 4.057 4.435 4.73 2.217 2.027 2.218 2.026 2.956 3.375 3.696 4.048 4.435 6.067 5.174 6.063h.739v1.346l-2.218 6.056 2.218.673.739.672 2.217 2.017v.673z" fill="#feedde" stroke="#8d8d8d" stroke-width=".5"/><g><text class="Title__crreated-with___67o6X Title__title-common___Nju1R" x="30" y="600">created with datamaps.co ©</text></g><g><text x="440" y="580" text-anchor="middle" font-size="9" fill="#333">12</text><path fill="#feedde" d="M440 590h40v10h-40z"/><text x="480" y="580" text-anchor="middle" font-size="9" fill="#333">122.86</text><path fill="#fdd0a2" d="M480 590h40v10h-40z"/><text x="520" y="580" text-anchor="middle" font-size="9" fill="#333">233.71</text><path fill="#fdae6b" d="M520 590h40v10h-40z"/><text x="560" y="580" text-anchor="middle" font-size="9" fill="#333">344.57</text><path fill="#fd8d3c" d="M560 590h40v10h-40z"/><g><text x="600" y="580" text-anchor="middle" font-size="9" fill="#333">455.43</text><path fill="#f16913" d="M600 590h40v10h-40z"/></g><g><text x="640" y="580" text-anchor="middle" font-size="9" fill="#333">566.29</text><path fill="#d94801" d="M640 590h40v10h-40z"/></g><g><text x="680" y="580" text-anchor="middle" font-size="9" fill="#333">677.14</text><path fill="#8c2d04" d="M680 590h40v10h-40z"/></g><text x="720" y="580" text-anchor="middle" font-size="9" fill="#333">788</text></g></g></svg>